<svg width="134" height="21" viewBox="0 0 134 21" fill="none" xmlns="http://www.w3.org/2000/svg">
<path d="M8.85551 7.51234L7.67702 8.72397C6.68257 7.77947 5.71718 7.30563 4.78408 7.30563C4.1803 7.30563 3.66693 7.49962 3.24074 7.88441C2.81455 8.27239 2.59823 8.73033 2.59823 9.26459C2.59823 9.71299 2.7758 10.1423 3.13419 10.5526C3.4829 10.9914 4.21905 11.4939 5.34588 12.0599C6.72455 12.7564 7.65765 13.4306 8.14519 14.0825C8.62627 14.744 8.86519 15.4881 8.86519 16.3118C8.86519 17.463 8.45191 18.4393 7.62859 19.2439C6.80526 20.0484 5.77207 20.4491 4.53547 20.4491C3.70568 20.4491 2.91464 20.2742 2.15912 19.9276C1.4036 19.581 0.783675 19.0912 0.292908 18.4647L1.45848 17.1641C2.40127 18.2135 3.39895 18.735 4.45475 18.735C5.18767 18.735 5.81404 18.4997 6.33387 18.0322C6.85369 17.5648 7.11199 17.0178 7.11199 16.3881C7.11199 15.8634 6.94087 15.3991 6.60185 14.9952C6.26284 14.5913 5.48794 14.0857 4.28685 13.4751C2.98567 12.8295 2.10746 12.1808 1.64252 11.5289C1.17113 10.8928 0.935427 10.1614 0.935427 9.33774C0.935427 8.26285 1.30996 7.37241 2.0558 6.66324C2.80163 5.95407 3.73797 5.60107 4.86157 5.60107C6.17889 5.60107 7.50913 6.2371 8.85228 7.50916L8.85551 7.51234Z" fill="white"/>
<path d="M18.8904 5.604C21.0989 5.604 22.9296 6.3895 24.3857 7.96367C25.703 9.40745 26.3617 11.112 26.3617 13.0805C26.3617 15.049 25.6643 16.7695 24.2695 18.2419C22.8747 19.7143 21.0795 20.4521 18.8904 20.4521C16.7013 20.4521 14.8965 19.7143 13.5049 18.2419C12.1133 16.7695 11.4191 15.049 11.4191 13.0805C11.4191 11.112 12.0778 9.42017 13.3951 7.97639C14.8513 6.39586 16.6852 5.604 18.8904 5.604ZM18.8904 7.3817C17.3632 7.3817 16.0524 7.94141 14.9514 9.05764C13.8536 10.1739 13.3015 11.5222 13.3015 13.106C13.3015 14.13 13.5533 15.084 14.0538 15.9744C14.5542 16.8649 15.2323 17.5454 16.0879 18.0224C16.9435 18.4995 17.8766 18.738 18.8872 18.738C19.8978 18.738 20.8567 18.4995 21.7059 18.0224C22.555 17.5454 23.2298 16.8617 23.7271 15.9744C24.2243 15.084 24.4729 14.13 24.4729 13.106C24.4729 11.5254 23.924 10.177 22.823 9.05764C21.7252 7.94141 20.4111 7.3817 18.884 7.3817H18.8904Z" fill="white"/>
<path d="M43.687 8.90205L42.2212 9.80521C40.9555 8.13881 39.2282 7.30562 37.0391 7.30562C35.2859 7.30562 33.8297 7.85896 32.6738 8.96883C31.518 10.0787 30.94 11.4271 30.94 13.0171C30.94 14.0475 31.2048 15.0206 31.7375 15.9365C32.2703 16.8524 32.9967 17.5584 33.9234 18.0577C34.8468 18.5569 35.8864 18.805 37.0391 18.805C39.1571 18.805 40.8845 17.9813 42.2212 16.3309L43.687 17.2722C42.9993 18.2866 42.0759 19.069 40.92 19.6255C39.7641 20.1788 38.4436 20.4555 36.9616 20.4555C34.7015 20.4555 32.8256 19.7463 31.3275 18.328C29.8326 16.9096 29.0835 15.1892 29.0835 13.1603C29.0835 11.7864 29.4354 10.5112 30.1361 9.33773C30.8367 8.16425 31.7989 7.24837 33.0161 6.59327C34.2333 5.93498 35.5991 5.60742 37.1198 5.60742C38.0626 5.60742 38.9763 5.75053 39.861 6.03356C40.7457 6.31659 41.498 6.68867 42.1179 7.14979C42.7378 7.61091 43.2609 8.19606 43.687 8.90841V8.90205Z" fill="white"/>
<path d="M47.8619 0.487305C48.2816 0.487305 48.64 0.633591 48.9403 0.926164C49.2405 1.21874 49.3923 1.57173 49.3923 1.98197C49.3923 2.39221 49.2405 2.74838 48.9403 3.04414C48.64 3.33989 48.2784 3.48936 47.8619 3.48936C47.4454 3.48936 47.0837 3.33989 46.7899 3.04414C46.4929 2.74838 46.3444 2.39221 46.3444 1.98197C46.3444 1.57173 46.4929 1.21874 46.7899 0.926164C47.087 0.633591 47.4454 0.487305 47.8619 0.487305ZM46.9449 6.3006H48.7885V20.4395H46.9449V6.3006Z" fill="white"/>
<path d="M59.3884 5.604C61.5968 5.604 63.4275 6.3895 64.8837 7.96367C66.2269 9.39791 66.8984 11.1056 66.8984 13.0805C66.9146 17.962 66.9146 20.4394 66.8984 20.5157H64.9483V17.3069C63.928 19.18 62.0747 20.2295 59.3884 20.4521C57.1896 20.4521 55.3945 19.7143 54.0029 18.2419C52.6113 16.7695 51.9171 15.049 51.9171 13.0805C51.9171 11.112 52.5758 9.42017 53.8931 7.97639C55.3493 6.39586 57.1832 5.604 59.3884 5.604ZM59.3884 7.3817C57.8612 7.3817 56.5503 7.94141 55.4493 9.05764C54.3516 10.1739 53.7995 11.5222 53.7995 13.106C53.7995 14.13 54.0804 15.1126 54.6422 16.0571C55.204 17.0016 56.1564 17.803 57.4996 18.4549C60.8672 19.1927 63.2629 17.6854 64.6835 13.9296C64.761 12.7275 64.6319 11.5763 64.2896 10.476C64.0442 9.9767 63.7084 9.50604 63.2822 9.05764C62.2103 7.94141 60.9091 7.3817 59.3819 7.3817H59.3884Z" fill="white"/>
<path d="M70.1982 0.833984H72.058V20.4364H70.1982V0.833984Z" fill="white"/>
<path d="M89.7998 8.90205L88.334 9.80521C87.0683 8.13881 85.341 7.30562 83.1519 7.30562C81.3987 7.30562 79.9425 7.85896 78.7866 8.96883C77.6308 10.0787 77.0528 11.4271 77.0528 13.0171C77.0528 14.0475 77.3176 15.0206 77.8503 15.9365C78.383 16.8524 79.1095 17.5584 80.0362 18.0577C80.9596 18.5569 81.9992 18.805 83.1519 18.805C85.2699 18.805 86.9973 17.9813 88.334 16.3309L89.7998 17.2722C89.1121 18.2866 88.1887 19.069 87.0328 19.6255C85.8769 20.1788 84.5564 20.4555 83.0744 20.4555C80.8143 20.4555 78.9384 19.7463 77.4403 18.328C75.9453 16.9096 75.1963 15.1892 75.1963 13.1603C75.1963 11.7864 75.5482 10.5112 76.2488 9.33773C76.9495 8.16425 77.9117 7.24837 79.1289 6.59327C80.3461 5.93498 81.7119 5.60742 83.2326 5.60742C84.1754 5.60742 85.0891 5.75053 85.9738 6.03356C86.8585 6.31659 87.6108 6.68867 88.2307 7.14979C88.8506 7.61091 89.3736 8.19606 89.7998 8.90841V8.90205Z" fill="#666CFF"/>
<path d="M92.625 13.9681V12.2668C92.7638 11.4177 92.964 10.7244 93.2288 10.1933C93.839 8.71454 94.6591 7.63329 95.6891 6.94638C96.719 6.25947 97.5746 5.91602 98.2527 5.91602C98.7596 5.91602 99.2988 6.0782 99.8767 6.40576L98.921 7.92586C98.1106 7.63329 97.3067 7.86862 96.5059 8.63503C95.7084 9.40145 95.1563 10.2346 94.8496 11.1346C94.6236 11.9328 94.5106 13.4339 94.5106 15.6313V20.4143H92.625V13.9713V13.9681Z" fill="#666CFF"/>
<path d="M108.223 5.604C110.431 5.604 112.262 6.3895 113.718 7.96367C115.061 9.39791 115.733 11.1056 115.733 13.0805C115.749 17.962 115.749 20.4394 115.733 20.5157H113.783V17.3069C112.763 19.18 110.909 20.2295 108.223 20.4521C106.024 20.4521 104.229 19.7143 102.837 18.2419C101.446 16.7695 100.752 15.049 100.752 13.0805C100.752 11.112 101.41 9.42017 102.728 7.97639C104.184 6.39586 106.018 5.604 108.223 5.604ZM108.223 7.3817C106.696 7.3817 105.385 7.94141 104.284 9.05764C103.186 10.1739 102.634 11.5222 102.634 13.106C102.634 14.13 102.915 15.1126 103.477 16.0571C104.039 17.0016 104.991 17.803 106.334 18.4549C109.702 19.1927 112.097 17.6854 113.518 13.9296C113.596 12.7275 113.466 11.5763 113.124 10.476C112.879 9.9767 112.543 9.50604 112.117 9.05764C111.045 7.94141 109.744 7.3817 108.217 7.3817H108.223Z" fill="#666CFF"/>
<path d="M120.47 17.6916C119.685 16.4037 119.214 15.1348 119.055 13.8882C119.055 4.94246 119.055 0.480724 119.055 0.496624H120.886V8.38337C121.661 7.44841 122.53 6.74878 123.488 6.28766C124.447 5.82972 125.5 5.59757 126.643 5.59757C128.667 5.59757 130.398 6.32264 131.838 7.77596C133.278 9.22929 133.998 10.9911 133.998 13.0614C133.998 15.1316 133.275 16.8362 131.825 18.28C130.375 19.7237 128.632 20.4456 126.591 20.4456C125.422 20.4456 124.325 20.223 123.301 19.781C122.278 19.3389 121.332 18.6393 120.47 17.6853V17.6916ZM126.436 18.7093C127.473 18.7093 128.428 18.4581 129.294 17.9556C130.162 17.4531 130.853 16.7535 131.367 15.8599C131.88 14.9663 132.138 14.0122 132.138 12.9978C132.138 11.9833 131.88 11.0451 131.36 10.1293C130.84 9.21339 130.143 8.50422 129.268 8.00175C128.393 7.49929 127.457 7.24806 126.462 7.24806C125.468 7.24806 124.489 7.49929 123.582 8.00175C122.675 8.50422 121.977 9.18795 121.49 10.0498C121.002 10.9148 120.757 11.8783 120.757 12.9437C120.757 14.5846 121.306 15.9553 122.407 17.0556C123.505 18.1559 124.848 18.7061 126.436 18.7061V18.7093Z" fill="#666CFF"/>
</svg>
